<?xml version="1.0" standalone="no"?>
<!DOCTYPE svg PUBLIC "-//W3C//DTD SVG 20010904//EN"
 "http://www.w3.org/TR/2001/REC-SVG-20010904/DTD/svg10.dtd">
<svg version="1.0" xmlns="http://www.w3.org/2000/svg"
 width="140.000000pt" height="140.000000pt" viewBox="0 0 140.000000 140.000000"
 preserveAspectRatio="xMidYMid meet">
<metadata>
Created by potrace 1.11, written by Peter Selinger 2001-2013
</metadata>
<g transform="translate(0.000000,140.000000) scale(0.100000,-0.100000)"
fill="#000000" stroke="none">
<path d="M646 1250 c-41 -13 -77 -50 -71 -71 5 -15 -7 -11 -60 16 -83 44 -139
46 -212 9 -89 -44 -165 -149 -167 -230 -1 -52 17 -74 60 -74 24 0 38 7 49 24
15 22 14 26 -4 57 -30 49 -27 91 9 133 76 86 142 73 383 -71 122 -73 117 -62
75 -173 -16 -42 -22 -72 -18 -85 6 -16 16 -2 51 73 38 82 45 93 63 87 12 -4
53 -9 91 -12 94 -6 167 21 234 86 75 73 90 160 38 209 -52 48 -126 32 -147
-33 -10 -31 -9 -38 14 -68 80 -104 -30 -191 -177 -141 l-46 15 6 68 c5 55 2
74 -15 107 -33 65 -93 94 -156 74z m72 -66 c41 -28 63 -94 46 -138 -5 -14 -9
-14 -37 0 -48 24 -97 75 -97 100 0 22 33 54 55 54 6 0 21 -7 33 -16z"/>
<path d="M432 889 c-83 -41 -122 -123 -122 -254 0 -144 50 -258 153 -351 157
-141 416 -168 529 -54 43 43 49 79 18 110 -31 31 -100 25 -100 -9 0 -9 -9 -35
-20 -59 -32 -70 -111 -91 -160 -42 -52 52 -13 105 130 181 152 81 209 151 210
258 0 67 -27 128 -72 161 -26 19 -48 25 -103 28 -60 3 -75 1 -105 -20 -19 -13
-48 -42 -65 -65 -16 -23 -35 -42 -41 -42 -7 -1 -15 18 -18 42 -18 118 -123
170 -234 116z"/>
</g>
</svg>
