<?xml version="1.0" standalone="no"?>
<!DOCTYPE svg PUBLIC "-//W3C//DTD SVG 20010904//EN"
 "http://www.w3.org/TR/2001/REC-SVG-20010904/DTD/svg10.dtd">
<svg version="1.0" xmlns="http://www.w3.org/2000/svg"
 width="140.000000pt" height="140.000000pt" viewBox="0 0 140.000000 140.000000"
 preserveAspectRatio="xMidYMid meet">
<metadata>
Created by potrace 1.11, written by Peter Selinger 2001-2013
</metadata>
<g transform="translate(0.000000,140.000000) scale(0.100000,-0.100000)"
fill="#000000" stroke="none">
<path d="M643 1242 c-33 -10 -63 -39 -63 -61 0 -19 -4 -18 -65 10 -82 39 -143
42 -206 11 -56 -27 -114 -83 -142 -137 -20 -40 -30 -135 -14 -151 13 -13 68
-8 85 9 14 15 15 21 3 50 -37 88 -14 153 66 183 53 21 95 13 187 -33 68 -34
256 -143 256 -148 0 -1 -11 -31 -24 -66 -51 -139 -40 -165 17 -39 l36 81 53
-8 c93 -13 154 -7 211 20 123 61 181 183 123 262 -22 30 -101 28 -127 -4 -25
-30 -24 -66 1 -98 22 -28 26 -73 10 -104 -25 -46 -104 -61 -190 -35 l-45 13 0
75 c-1 60 -5 81 -24 112 -34 54 -88 75 -148 58z m75 -58 c30 -21 52 -66 52
-109 0 -28 -4 -35 -19 -35 -29 0 -104 62 -116 94 -8 24 -6 31 14 47 28 23 40
24 69 3z"/>
<path d="M457 896 c-51 -19 -83 -50 -114 -111 -22 -43 -26 -64 -27 -150 -1
-111 13 -162 69 -250 90 -140 230 -217 395 -218 127 0 230 50 243 120 7 35
-33 76 -70 71 -22 -2 -31 -13 -49 -57 -12 -30 -34 -65 -48 -78 -45 -38 -108
-26 -140 28 -17 28 -17 31 3 62 12 19 46 48 81 68 142 80 210 130 234 172 32
54 41 112 26 167 -29 108 -107 153 -224 128 -40 -8 -58 -20 -100 -64 -28 -30
-54 -54 -57 -54 -4 0 -11 15 -14 33 -11 48 -42 105 -68 121 -34 22 -97 27
-140 12z"/>
</g>
</svg>
